<?xml version="1.0" encoding="UTF-8" standalone="no"?>
<!-- Created with Inkscape (http://www.inkscape.org/) -->

<svg
   xmlns:dc="http://purl.org/dc/elements/1.1/"
   xmlns:cc="http://creativecommons.org/ns#"
   xmlns:rdf="http://www.w3.org/1999/02/22-rdf-syntax-ns#"
   xmlns:svg="http://www.w3.org/2000/svg"
   xmlns="http://www.w3.org/2000/svg"
   xmlns:xlink="http://www.w3.org/1999/xlink"
   xmlns:sodipodi="http://sodipodi.sourceforge.net/DTD/sodipodi-0.dtd"
   xmlns:inkscape="http://www.inkscape.org/namespaces/inkscape"
   version="1.1"
   width="639.8111"
   height="192.80318"
   id="svg2"
   inkscape:version="0.48.5 r10040"
   sodipodi:docname="DINOBACKGROUND.svg">
  <sodipodi:namedview
     pagecolor="#ffffff"
     bordercolor="#666666"
     borderopacity="1"
     objecttolerance="10"
     gridtolerance="10"
     guidetolerance="10"
     inkscape:pageopacity="0"
     inkscape:pageshadow="2"
     inkscape:window-width="1912"
     inkscape:window-height="1140"
     id="namedview4087"
     showgrid="false"
     fit-margin-top="0"
     fit-margin-left="0"
     fit-margin-right="0"
     fit-margin-bottom="0"
     inkscape:zoom="1.2635402"
     inkscape:cx="377.22717"
     inkscape:cy="150.23837"
     inkscape:window-x="0"
     inkscape:window-y="0"
     inkscape:window-maximized="0"
     inkscape:current-layer="svg2"
     showguides="true"
     inkscape:guide-bbox="true" />
  <defs
     id="defs4">
    <linearGradient
       id="linearGradient4149">
      <stop
         id="stop4151"
         style="stop-color:#ffbf00;stop-opacity:1"
         offset="0" />
      <stop
         id="stop4153"
         style="stop-color:#e3a800;stop-opacity:1"
         offset="1" />
    </linearGradient>
    <linearGradient
       id="linearGradient3942">
      <stop
         id="stop3944"
         style="stop-color:#ffda00;stop-opacity:1"
         offset="0" />
      <stop
         id="stop3946"
         style="stop-color:#b29328;stop-opacity:1"
         offset="1" />
    </linearGradient>
    <filter
       color-interpolation-filters="sRGB"
       id="filter4065">
      <feFlood
         id="feFlood4067"
         result="flood"
         flood-color="rgb(0,0,0)"
         flood-opacity="0.5" />
      <feComposite
         in2="SourceGraphic"
         operator="in"
         in="flood"
         result="composite1"
         id="feComposite4069" />
      <feGaussianBlur
         id="feGaussianBlur4071"
         result="blur"
         stdDeviation="2" />
      <feOffset
         id="feOffset4073"
         result="offset"
         dy="2"
         dx="2" />
      <feComposite
         in2="offset"
         operator="over"
         in="SourceGraphic"
         result="composite2"
         id="feComposite4075" />
    </filter>
    <filter
       color-interpolation-filters="sRGB"
       id="filter4077">
      <feFlood
         id="feFlood4079"
         result="flood"
         flood-color="rgb(0,0,0)"
         flood-opacity="0.5" />
      <feComposite
         in2="SourceGraphic"
         operator="in"
         in="flood"
         result="composite1"
         id="feComposite4081" />
      <feGaussianBlur
         id="feGaussianBlur4083"
         result="blur"
         stdDeviation="2" />
      <feOffset
         id="feOffset4085"
         result="offset"
         dy="2"
         dx="2" />
      <feComposite
         in2="offset"
         operator="over"
         in="SourceGraphic"
         result="composite2"
         id="feComposite4087" />
    </filter>
    <filter
       color-interpolation-filters="sRGB"
       id="filter4089">
      <feFlood
         id="feFlood4091"
         result="flood"
         flood-color="rgb(0,0,0)"
         flood-opacity="0.5" />
      <feComposite
         in2="SourceGraphic"
         operator="in"
         in="flood"
         result="composite1"
         id="feComposite4093" />
      <feGaussianBlur
         id="feGaussianBlur4095"
         result="blur"
         stdDeviation="2" />
      <feOffset
         id="feOffset4097"
         result="offset"
         dy="2"
         dx="2" />
      <feComposite
         in2="offset"
         operator="over"
         in="SourceGraphic"
         result="composite2"
         id="feComposite4099" />
    </filter>
    <filter
       color-interpolation-filters="sRGB"
       id="filter4101">
      <feFlood
         id="feFlood4103"
         result="flood"
         flood-color="rgb(0,0,0)"
         flood-opacity="0.5" />
      <feComposite
         in2="SourceGraphic"
         operator="in"
         in="flood"
         result="composite1"
         id="feComposite4105" />
      <feGaussianBlur
         id="feGaussianBlur4107"
         result="blur"
         stdDeviation="2" />
      <feOffset
         id="feOffset4109"
         result="offset"
         dy="2"
         dx="2" />
      <feComposite
         in2="offset"
         operator="over"
         in="SourceGraphic"
         result="composite2"
         id="feComposite4111" />
    </filter>
    <filter
       color-interpolation-filters="sRGB"
       id="filter4113">
      <feFlood
         id="feFlood4115"
         result="flood"
         flood-color="rgb(0,0,0)"
         flood-opacity="0.5" />
      <feComposite
         in2="SourceGraphic"
         operator="in"
         in="flood"
         result="composite1"
         id="feComposite4117" />
      <feGaussianBlur
         id="feGaussianBlur4119"
         result="blur"
         stdDeviation="2" />
      <feOffset
         id="feOffset4121"
         result="offset"
         dy="2"
         dx="2" />
      <feComposite
         in2="offset"
         operator="over"
         in="SourceGraphic"
         result="composite2"
         id="feComposite4123" />
    </filter>
    <filter
       color-interpolation-filters="sRGB"
       id="filter4125">
      <feFlood
         id="feFlood4127"
         result="flood"
         flood-color="rgb(0,0,0)"
         flood-opacity="0.5" />
      <feComposite
         in2="SourceGraphic"
         operator="in"
         in="flood"
         result="composite1"
         id="feComposite4129" />
      <feGaussianBlur
         id="feGaussianBlur4131"
         result="blur"
         stdDeviation="2" />
      <feOffset
         id="feOffset4133"
         result="offset"
         dy="2"
         dx="2" />
      <feComposite
         in2="offset"
         operator="over"
         in="SourceGraphic"
         result="composite2"
         id="feComposite4135" />
    </filter>
    <filter
       color-interpolation-filters="sRGB"
       id="filter4137">
      <feFlood
         id="feFlood4139"
         result="flood"
         flood-color="rgb(0,0,0)"
         flood-opacity="0.5" />
      <feComposite
         in2="SourceGraphic"
         operator="in"
         in="flood"
         result="composite1"
         id="feComposite4141" />
      <feGaussianBlur
         id="feGaussianBlur4143"
         result="blur"
         stdDeviation="2" />
      <feOffset
         id="feOffset4145"
         result="offset"
         dy="2"
         dx="2" />
      <feComposite
         in2="offset"
         operator="over"
         in="SourceGraphic"
         result="composite2"
         id="feComposite4147" />
    </filter>
    <filter
       color-interpolation-filters="sRGB"
       id="filter4155">
      <feFlood
         id="feFlood4157"
         result="flood"
         flood-color="rgb(0,0,0)"
         flood-opacity="0.5" />
      <feComposite
         in2="SourceGraphic"
         operator="in"
         in="flood"
         result="composite1"
         id="feComposite4159" />
      <feGaussianBlur
         id="feGaussianBlur4161"
         result="blur"
         stdDeviation="2" />
      <feOffset
         id="feOffset4163"
         result="offset"
         dy="2"
         dx="2" />
      <feComposite
         in2="offset"
         operator="over"
         in="SourceGraphic"
         result="composite2"
         id="feComposite4165" />
    </filter>
    <radialGradient
       cx="-96.720329"
       cy="213.73764"
       r="171.52309"
       fx="-96.720329"
       fy="213.73764"
       id="radialGradient4230"
       xlink:href="#linearGradient4149"
       gradientUnits="userSpaceOnUse"
       gradientTransform="matrix(-0.35888222,0.56270126,-1.0358788,-0.66066761,-36.614292,157.34514)" />
    <radialGradient
       inkscape:collect="always"
       xlink:href="#linearGradient4149"
       id="radialGradient4104"
       gradientUnits="userSpaceOnUse"
       gradientTransform="matrix(-0.35888222,0.56270126,-1.0358788,-0.66066761,-427.50994,115.57821)"
       cx="-96.720329"
       cy="213.73764"
       fx="-96.720329"
       fy="213.73764"
       r="171.52309" />
  </defs>
  <metadata
     id="metadata7">
    <rdf:RDF>
      <cc:Work
         rdf:about="">
        <dc:format>image/svg+xml</dc:format>
        <dc:type
           rdf:resource="http://purl.org/dc/dcmitype/StillImage" />
        <dc:title />
      </cc:Work>
    </rdf:RDF>
  </metadata>
  <rect
     style="fill:#c09100;fill-opacity:1;stroke:none"
     id="rect3288"
     width="639.8092"
     height="179.33846"
     x="0"
     y="0" />
  <path
     style="fill:#e0a900;fill-opacity:1;stroke:none"
     d="m 639.81108,68.12319 -4.17532,-7.793532 -4.17539,-1.685088 -5.15779,-3.370177 -5.64901,-3.15954 -2.94727,2.527629 -6.63143,-0.631907 -3.43857,5.687173 -7.61382,2.738273 -4.17539,6.108443 -4.91215,-5.476539 -2.70174,-6.108444 -7.61382,-3.79145 -2.21051,-4.002085 -9.33311,-2.738274 -6.38584,2.527641 -2.45611,2.106359 -9.3331,-3.58081 -4.42099,4.844624 -12.28044,0.842545 -5.15779,6.529717 -5.8946,4.002087 -9.33314,-5.265902 -8.59632,-5.476539 -3.1929,-6.950992 -8.59631,-4.63399 -4.17536,1.26382 -8.35072,3.15954 -6.38583,4.633992 -7.36826,8.846713 -8.10502,-0.842544 -3.43856,-7.582898 -8.10505,-5.687173 -2.70171,-4.21272 -5.40341,-1.68509 -6.38584,0.84254 -4.91215,5.26591 -8.59635,1.47445 -2.21048,4.423353 -6.3858,4.002088 -3.92976,5.89781 -9.57873,1.474451 -6.63147,3.791448 -9.57874,-1.474452 -7.85945,-9.899894 -14.24533,-6.31908 -3.1929,-7.372264 -10.31559,-1.89573 -4.42096,5.89782 -6.63143,1.89572 -1.22806,8.004171 -6.14024,2.738266 -4.91218,5.897813 -5.15775,-1.685088 -7.61389,-4.844632 -7.61389,-2.106359 -3.1929,-6.108447 -5.64898,-2.738274 -2.94733,-5.05526 -6.14024,1.89572 -3.6841,4.634 -2.45611,5.055262 -7.12266,8.425442 -7.12263,-0.42127 -3.43856,-6.740354 -11.29799,-6.10845 -2.9473,-7.79353 -6.38584,0.63191 -4.91218,-4.84463 -5.15779,1.47445 -11.29798,4.84463 -4.17536,3.37018 0.2456,4.212718 -5.64898,1.053182 -1.22805,4.633991 -4.42096,4.633995 -11.54362,-1.053181 -2.7017,-9.267987 -6.14024,-2.316998 -8.84195,-7.5829 -6.63143,-1.47445 -7.85949,1.47445 -4.42095,2.94891 -0.4912,5.47654 -6.38583,4.633989 0,2.527632 -4.1754,2.948907 -4.66655,-1.474452 -7.85949,-12.427526 -11.05239,-9.05735 -11.78922,-7.5829 -5.40341,7.16163 -8.105121,0.42127 -5.403343,5.89781 -10.070001,14.955156 -8.596314,3.580813 -6.140204,4.212722 -6.385836,-5.687173 -7.613821,-10.321168 -9.578807,-6.95099 -10.315562,-2.317 -2.947304,5.89781 -11.29802,5.265905 -5.894608,3.15954 L 7.61389,58.855207 2.3559551e-7,68.18641 l 0,90.1945 L 639.69591,158.82236 z"
     id="path4135"
     inkscape:connector-curvature="0"
     sodipodi:nodetypes="ccccccccccccccccccccccccccccccccccccccccccccccccccccccccccccccccccccccccccccccccccccccccccccccccccccccccccccc" />
  <path
     sodipodi:nodetypes="ccccccccccccccccccccccccccccccccccccccccccccccccccccccccccccccccccccccccccccccccccccccccccccccccccccccccccccc"
     inkscape:connector-curvature="0"
     id="path4137"
     d="m 0.18891824,103.15177 4.22424796,-5.228906 4.1750459,-1.630593 5.1573639,-3.261187 5.648593,-3.057361 2.947061,2.445886 6.630911,-0.611471 3.438289,5.503251 7.613265,2.649715 4.175046,5.910906 4.911767,-5.29944 2.701532,-5.910892 7.613265,-3.668837 2.210304,-3.872658 9.33241,-2.649715 6.385349,2.445893 2.455901,2.03824 9.332409,-3.465012 4.420643,4.687955 12.279469,0.815297 5.1574,6.318548 5.89415,3.872661 9.33246,-5.095604 8.59562,-5.29943 3.19269,-6.726195 8.59562,-4.484133 4.17504,1.222947 8.35009,3.057361 6.38532,4.484133 7.3677,8.560614 8.10449,-0.815297 3.43826,-7.33767 8.10446,-5.503251 2.7015,-4.076484 5.40299,-1.630593 6.38535,0.815297 4.91177,5.095605 8.59569,1.426768 2.21026,4.280305 6.38535,3.872661 3.92945,5.707077 9.57801,1.426769 6.63095,3.66883 9.57797,-1.42677 7.85889,-9.579731 14.24422,-6.114723 3.19265,-7.133848 10.3148,-1.834418 4.42061,5.70708 6.63091,1.834418 1.22798,7.745316 6.13976,2.649712 4.9118,5.707074 5.15736,-1.630586 7.6133,-4.68796 7.6133,-2.03824 3.19266,-5.910901 5.64856,-2.649715 2.94709,-4.89178 6.13975,1.834418 3.68382,4.48413 2.45594,4.89178 7.12214,8.152966 7.12207,-0.407646 3.43825,-6.522373 11.29715,-5.910902 2.9471,-7.541491 6.38531,0.611471 4.91181,-4.687958 5.15736,1.426772 11.29715,4.687955 4.17505,3.261186 -0.2456,4.076483 5.64856,1.019122 1.22795,4.48413 4.42061,4.484133 11.54274,-1.019121 2.7015,-8.968264 6.13975,-2.242065 8.84122,-7.337669 6.63095,-1.426769 7.85886,1.426769 4.42064,2.853536 0.49116,5.29943 6.38535,4.48413 0,2.44589 4.17504,2.85354 4.66621,-1.426768 7.85886,-12.025629 6.83694,-7.711152 11.78831,4.775132 5.40299,6.930024 8.1045,0.407646 9.61754,-7.459011 10.06924,14.471515 8.59561,3.465011 6.13976,4.076481 6.38531,-5.503249 7.61327,-9.987385 9.57807,-6.726198 10.31477,-2.242065 2.94706,5.707077 11.29715,5.095604 5.89415,3.057362 2.94706,5.29943 7.40344,6.557354 0,89.74972 L 2.3559551e-7,192.59935 z"
     style="fill:#ffbf00;fill-opacity:1;stroke:none" />
</svg>
